# Blender v2.81 (sub 16) OBJ File: ''
# www.blender.org
mtllib Cylinder.mtl
o Cylinder
v 0.000000 -1.222844 -0.764743
v 0.000000 5.974111 -0.764743
v 0.149194 -1.222844 -0.750049
v 0.149194 5.974111 -0.750049
v 0.292655 -1.222844 -0.706531
v 0.292655 5.974111 -0.706531
v 0.424869 -1.222844 -0.635861
v 0.424869 5.974111 -0.635861
v 0.540755 -1.222844 -0.540755
v 0.540755 5.974111 -0.540755
v 0.635861 -1.222844 -0.424869
v 0.635861 5.974111 -0.424869
v 0.706531 -1.222844 -0.292655
v 0.706531 5.974111 -0.292655
v 0.750049 -1.222844 -0.149194
v 0.750049 5.974111 -0.149194
v 0.764743 -1.222844 -0.000000
v 0.764743 5.974111 -0.000000
v 0.750049 -1.222844 0.149194
v 0.750049 5.974111 0.149194
v 0.706531 -1.222844 0.292655
v 0.706531 5.974111 0.292655
v 0.635861 -1.222844 0.424869
v 0.635861 5.974111 0.424869
v 0.540755 -1.222844 0.540755
v 0.540755 5.974111 0.540755
v 0.424869 -1.222844 0.635861
v 0.424869 5.974111 0.635861
v 0.292655 -1.222844 0.706531
v 0.292655 5.974111 0.706531
v 0.149194 -1.222844 0.750049
v 0.149194 5.974111 0.750049
v -0.000000 -1.222844 0.764743
v -0.000000 5.974111 0.764743
v -0.149194 -1.222844 0.750049
v -0.149194 5.974111 0.750049
v -0.292655 -1.222844 0.706531
v -0.292655 5.974111 0.706531
v -0.424869 -1.222844 0.635861
v -0.424869 5.974111 0.635861
v -0.540756 -1.222844 0.540755
v -0.540756 5.974111 0.540755
v -0.635861 -1.222844 0.424868
v -0.635861 5.974111 0.424868
v -0.706531 -1.222844 0.292654
v -0.706531 5.974111 0.292654
v -0.750049 -1.222844 0.149193
v -0.750049 5.974111 0.149193
v -0.764743 -1.222844 -0.000001
v -0.764743 5.974111 -0.000001
v -0.750049 -1.222844 -0.149195
v -0.750049 5.974111 -0.149195
v -0.706530 -1.222844 -0.292655
v -0.706530 5.974111 -0.292655
v -0.635860 -1.222844 -0.424869
v -0.635860 5.974111 -0.424869
v -0.540755 -1.222844 -0.540756
v -0.540755 5.974111 -0.540756
v -0.424868 -1.222844 -0.635862
v -0.424868 5.974111 -0.635862
v -0.292654 -1.222844 -0.706531
v -0.292654 5.974111 -0.706531
v -0.149193 -1.222844 -0.750049
v -0.149193 5.974111 -0.750049
vt 0.221047 1.000000
vt 0.221046 0.000000
vt 0.250000 0.000000
vt 0.250000 1.000000
vt 0.274623 0.000000
vt 0.274623 1.000000
vt 0.774623 0.000000
vt 0.774623 1.000000
vt 0.745669 1.000000
vt 0.745669 0.000000
vt 0.713498 1.000000
vt 0.713498 0.000000
vt 0.679345 1.000000
vt 0.679345 0.000000
vt 0.644523 1.000000
vt 0.644523 0.000000
vt 0.610370 1.000000
vt 0.610371 0.000000
vt 0.578199 1.000000
vt 0.578199 0.000000
vt 0.549246 1.000000
vt 0.549246 0.000000
vt 0.524623 1.000000
vt 0.524623 0.000000
vt 1.000000 0.000000
vt 1.000000 0.999999
vt 0.971047 0.999999
vt 0.971047 0.000000
vt 0.938875 1.000000
vt 0.938875 0.000000
vt 0.904722 1.000000
vt 0.904722 0.000000
vt 0.869900 1.000000
vt 0.869900 0.000000
vt 0.835748 1.000000
vt 0.835748 0.000000
vt 0.803576 1.000000
vt 0.803576 0.000000
vt 0.774623 1.000000
vt 0.774623 0.000000
vt 0.524623 0.000000
vt 0.524623 1.000000
vt 0.500000 1.000000
vt 0.500000 0.000000
vt 0.471047 1.000000
vt 0.471047 0.000000
vt 0.438875 1.000000
vt 0.438875 0.000000
vt 0.404723 1.000000
vt 0.404722 0.000000
vt 0.369901 1.000000
vt 0.369900 0.000000
vt 0.335748 1.000000
vt 0.335748 0.000000
vt 0.303576 1.000000
vt 0.303576 0.000000
vt 0.274623 1.000000
vt 0.274623 0.000000
vt 0.000000 1.000000
vt 0.000000 0.000000
vt 0.024623 0.000000
vt 0.024623 1.000000
vt 0.053576 0.000000
vt 0.053577 1.000000
vt 0.085748 0.000000
vt 0.085748 1.000000
vt 0.119900 0.000000
vt 0.119901 1.000000
vt 0.154722 0.000000
vt 0.154723 1.000000
vt 0.296822 0.485388
vt 0.250000 0.490000
vt 0.203179 0.485389
vt 0.158156 0.471731
vt 0.116663 0.449553
vt 0.080295 0.419706
vt 0.050447 0.383337
vt 0.028269 0.341844
vt 0.014612 0.296822
vt 0.010000 0.250000
vt 0.014611 0.203179
vt 0.028269 0.158156
vt 0.050447 0.116663
vt 0.080294 0.080294
vt 0.116663 0.050447
vt 0.158156 0.028269
vt 0.203178 0.014612
vt 0.250000 0.010000
vt 0.296822 0.014612
vt 0.341844 0.028269
vt 0.383337 0.050447
vt 0.419706 0.080294
vt 0.449553 0.116663
vt 0.471731 0.158156
vt 0.485388 0.203178
vt 0.490000 0.250000
vt 0.485388 0.296822
vt 0.471731 0.341844
vt 0.449553 0.383337
vt 0.419706 0.419706
vt 0.383337 0.449553
vt 0.341844 0.471731
vt 0.188875 0.000000
vt 0.188876 1.000000
vt 0.750000 0.490000
vt 0.796822 0.485388
vt 0.841844 0.471731
vt 0.883337 0.449553
vt 0.919706 0.419706
vt 0.949553 0.383337
vt 0.971731 0.341844
vt 0.985388 0.296822
vt 0.990000 0.250000
vt 0.985388 0.203178
vt 0.971731 0.158156
vt 0.949553 0.116663
vt 0.919706 0.080294
vt 0.883337 0.050447
vt 0.841844 0.028269
vt 0.796822 0.014612
vt 0.750000 0.010000
vt 0.703178 0.014612
vt 0.658156 0.028269
vt 0.616663 0.050447
vt 0.580294 0.080294
vt 0.550447 0.116663
vt 0.528269 0.158156
vt 0.514611 0.203179
vt 0.510000 0.250000
vt 0.514612 0.296822
vt 0.528269 0.341844
vt 0.550447 0.383337
vt 0.580295 0.419706
vt 0.616663 0.449553
vt 0.658156 0.471731
vt 0.703179 0.485389
vn 0.0000 -0.6857 -0.7279
vn 0.0000 0.6857 -0.7279
vn 0.1420 0.6857 -0.7139
vn 0.1420 -0.6857 -0.7139
vn 0.2785 0.6857 -0.6725
vn 0.2785 -0.6857 -0.6725
vn 0.4044 0.6857 -0.6052
vn 0.4044 -0.6857 -0.6052
vn 0.5147 0.6857 -0.5147
vn 0.5147 -0.6857 -0.5147
vn 0.6052 0.6857 -0.4044
vn 0.6052 -0.6857 -0.4044
vn 0.6725 0.6857 -0.2785
vn 0.6725 -0.6857 -0.2785
vn 0.7139 0.6857 -0.1420
vn 0.7139 -0.6857 -0.1420
vn 0.7279 0.6857 0.0000
vn 0.7279 -0.6857 0.0000
vn 0.7139 0.6857 0.1420
vn 0.7139 -0.6857 0.1420
vn 0.6725 0.6857 0.2785
vn 0.6725 -0.6857 0.2785
vn 0.6052 0.6857 0.4044
vn 0.6052 -0.6857 0.4044
vn 0.5147 0.6857 0.5147
vn 0.5147 -0.6857 0.5147
vn 0.4044 0.6857 0.6052
vn 0.4044 -0.6857 0.6052
vn 0.2785 0.6857 0.6725
vn 0.2785 -0.6857 0.6725
vn 0.1420 0.6857 0.7139
vn 0.1420 -0.6857 0.7139
vn 0.0000 0.6857 0.7279
vn 0.0000 -0.6857 0.7279
vn -0.1420 0.6857 0.7139
vn -0.1420 -0.6857 0.7139
vn -0.2785 0.6857 0.6725
vn -0.2785 -0.6857 0.6725
vn -0.4044 0.6857 0.6052
vn -0.4044 -0.6857 0.6052
vn -0.5147 0.6857 0.5147
vn -0.5147 -0.6857 0.5147
vn -0.6052 0.6857 0.4044
vn -0.6052 -0.6857 0.4044
vn -0.6725 0.6857 0.2785
vn -0.6725 -0.6857 0.2785
vn -0.7139 0.6857 0.1420
vn -0.7139 -0.6857 0.1420
vn -0.7279 0.6857 0.0000
vn -0.7279 -0.6857 0.0000
vn -0.7139 0.6857 -0.1420
vn -0.7139 -0.6857 -0.1420
vn -0.6725 0.6857 -0.2785
vn -0.6725 -0.6857 -0.2785
vn -0.6052 0.6857 -0.4044
vn -0.6052 -0.6857 -0.4044
vn -0.5147 0.6857 -0.5147
vn -0.5147 -0.6857 -0.5147
vn -0.4044 0.6857 -0.6052
vn -0.4044 -0.6857 -0.6052
vn -0.2785 0.6857 -0.6725
vn -0.2785 -0.6857 -0.6725
vn -0.1420 0.6857 -0.7139
vn -0.1420 -0.6857 -0.7139
usemtl None
s 1
f 1/1/1 2/2/2 4/3/3 3/4/4
f 3/4/4 4/3/3 6/5/5 5/6/6
f 5/7/6 6/8/5 8/9/7 7/10/8
f 7/10/8 8/9/7 10/11/9 9/12/10
f 9/12/10 10/11/9 12/13/11 11/14/12
f 11/14/12 12/13/11 14/15/13 13/16/14
f 13/16/14 14/15/13 16/17/15 15/18/16
f 15/18/16 16/17/15 18/19/17 17/20/18
f 17/20/18 18/19/17 20/21/19 19/22/20
f 19/22/20 20/21/19 22/23/21 21/24/22
f 21/25/22 22/26/21 24/27/23 23/28/24
f 23/28/24 24/27/23 26/29/25 25/30/26
f 25/30/26 26/29/25 28/31/27 27/32/28
f 27/32/28 28/31/27 30/33/29 29/34/30
f 29/34/30 30/33/29 32/35/31 31/36/32
f 31/36/32 32/35/31 34/37/33 33/38/34
f 33/38/34 34/37/33 36/39/35 35/40/36
f 35/41/36 36/42/35 38/43/37 37/44/38
f 37/44/38 38/43/37 40/45/39 39/46/40
f 39/46/40 40/45/39 42/47/41 41/48/42
f 41/48/42 42/47/41 44/49/43 43/50/44
f 43/50/44 44/49/43 46/51/45 45/52/46
f 45/52/46 46/51/45 48/53/47 47/54/48
f 47/54/48 48/53/47 50/55/49 49/56/50
f 49/56/50 50/55/49 52/57/51 51/58/52
f 51/59/52 52/60/51 54/61/53 53/62/54
f 53/62/54 54/61/53 56/63/55 55/64/56
f 55/64/56 56/63/55 58/65/57 57/66/58
f 57/66/58 58/65/57 60/67/59 59/68/60
f 59/68/60 60/67/59 62/69/61 61/70/62
f 4/71/3 2/72/2 64/73/63 62/74/61 60/75/59 58/76/57 56/77/55 54/78/53 52/79/51 50/80/49 48/81/47 46/82/45 44/83/43 42/84/41 40/85/39 38/86/37 36/87/35 34/88/33 32/89/31 30/90/29 28/91/27 26/92/25 24/93/23 22/94/21 20/95/19 18/96/17 16/97/15 14/98/13 12/99/11 10/100/9 8/101/7 6/102/5
f 61/70/62 62/69/61 64/103/63 63/104/64
f 63/104/64 64/103/63 2/2/2 1/1/1
f 1/105/1 3/106/4 5/107/6 7/108/8 9/109/10 11/110/12 13/111/14 15/112/16 17/113/18 19/114/20 21/115/22 23/116/24 25/117/26 27/118/28 29/119/30 31/120/32 33/121/34 35/122/36 37/123/38 39/124/40 41/125/42 43/126/44 45/127/46 47/128/48 49/129/50 51/130/52 53/131/54 55/132/56 57/133/58 59/134/60 61/135/62 63/136/64
