# Blender v2.81 (sub 16) OBJ File: ''
# www.blender.org
o Cylinder
v 0.000000 -1.222844 -0.764743
v 0.000000 5.974111 -0.764742
v 0.149194 5.974111 -0.750048
v 0.149194 -1.222844 -0.750049
v 0.292655 5.974111 -0.706530
v 0.292655 -1.222844 -0.706531
v 0.424869 5.974111 -0.635860
v 0.424869 -1.222844 -0.635861
v 0.540755 5.974111 -0.540754
v 0.540755 -1.222844 -0.540755
v 0.635861 5.974111 -0.424868
v 0.635861 -1.222844 -0.424869
v 0.706531 5.974111 -0.292654
v 0.706531 -1.222844 -0.292655
v 0.750049 5.974111 -0.149193
v 0.750049 -1.222844 -0.149194
v 0.764743 5.974111 0.000001
v 0.764743 -1.222844 -0.000000
v 0.750049 5.974111 0.149195
v 0.750049 -1.222844 0.149194
v 0.706531 5.974111 0.292656
v 0.706531 -1.222844 0.292655
v 0.635861 5.974111 0.424870
v 0.635861 -1.222844 0.424869
v 0.540755 5.974111 0.540756
v 0.540755 -1.222844 0.540755
v 0.424869 5.974111 0.635862
v 0.424869 -1.222844 0.635861
v 0.292655 5.974111 0.706532
v 0.292655 -1.222844 0.706531
v 0.149194 5.974111 0.750050
v 0.149194 -1.222844 0.750049
v 0.000000 5.974111 0.764744
v 0.000000 -1.222844 0.764743
v -0.149194 5.974111 0.750050
v -0.149194 -1.222844 0.750049
v -0.292655 5.974111 0.706532
v -0.292655 -1.222844 0.706531
v -0.424869 5.974111 0.635862
v -0.424869 -1.222844 0.635861
v -0.540756 5.974111 0.540756
v -0.540756 -1.222844 0.540755
v -0.635861 5.974111 0.424869
v -0.635861 -1.222844 0.424868
v -0.706531 5.974111 0.292655
v -0.706531 -1.222844 0.292654
v -0.750049 5.974111 0.149194
v -0.750049 -1.222844 0.149193
v -0.764743 5.974111 -0.000000
v -0.764743 -1.222844 -0.000001
v -0.750049 5.974111 -0.149194
v -0.750049 -1.222844 -0.149195
v -0.706530 5.974111 -0.292654
v -0.706530 -1.222844 -0.292655
v -0.635860 5.974111 -0.424868
v -0.635860 -1.222844 -0.424869
v -0.540755 5.974111 -0.540755
v -0.540755 -1.222844 -0.540756
v -0.424868 5.974111 -0.635861
v -0.424868 -1.222844 -0.635862
v -0.292654 5.974111 -0.706530
v -0.292654 -1.222844 -0.706531
v -0.149193 5.974111 -0.750048
v -0.149193 -1.222844 -0.750049
vt 0.472931 0.351370
vt 0.464665 0.953910
vt 0.454039 0.954340
vt 0.462306 0.351800
vt 0.444938 0.954956
vt 0.453204 0.352416
vt 0.437711 0.955734
vt 0.445977 0.353195
vt 0.432635 0.956644
vt 0.440902 0.354105
vt 0.429907 0.957652
vt 0.438173 0.355113
vt 0.429629 0.958718
vt 0.437895 0.356179
vt 0.431814 0.959802
vt 0.440080 0.357263
vt 0.436377 0.960862
vt 0.444643 0.358323
vt 0.443143 0.961857
vt 0.451410 0.359318
vt 0.451852 0.962749
vt 0.460118 0.360210
vt 0.462170 0.963503
vt 0.470436 0.360964
vt 0.473698 0.964092
vt 0.481965 0.361553
vt 0.485996 0.964491
vt 0.494262 0.361952
vt 0.498590 0.964686
vt 0.506856 0.362147
vt 0.510996 0.964670
vt 0.519262 0.362130
vt 0.522737 0.964442
vt 0.531003 0.361903
vt 0.533362 0.964012
vt 0.541628 0.361472
vt 0.542463 0.963396
vt 0.550729 0.360856
vt 0.549690 0.962617
vt 0.557957 0.360078
vt 0.554766 0.961707
vt 0.563032 0.359168
vt 0.557495 0.960699
vt 0.565761 0.358160
vt 0.557772 0.959633
vt 0.566038 0.357094
vt 0.555587 0.958549
vt 0.563853 0.356010
vt 0.551024 0.957489
vt 0.559290 0.354950
vt 0.544258 0.956494
vt 0.552524 0.353955
vt 0.535549 0.955602
vt 0.543815 0.353063
vt 0.525232 0.954848
vt 0.533498 0.352309
vt 0.513703 0.954259
vt 0.521969 0.351720
vt 0.501405 0.953860
vt 0.509671 0.351321
vt 0.488812 0.953665
vt 0.497078 0.351126
vt 0.476406 0.953682
vt 0.484672 0.351142
vn -0.0000 -0.6857 -0.7279
vn -0.0000 0.6857 -0.7279
vn 0.1420 0.6857 -0.7139
vn 0.1420 -0.6857 -0.7139
vn 0.2786 0.6857 -0.6725
vn 0.2786 -0.6857 -0.6725
vn 0.4044 0.6857 -0.6052
vn 0.4044 -0.6857 -0.6052
vn 0.5147 0.6857 -0.5147
vn 0.5147 -0.6857 -0.5147
vn 0.6052 0.6857 -0.4044
vn 0.6052 -0.6857 -0.4044
vn 0.6725 0.6857 -0.2786
vn 0.6725 -0.6857 -0.2786
vn 0.7139 0.6857 -0.1420
vn 0.7139 -0.6857 -0.1420
vn 0.7279 0.6857 -0.0000
vn 0.7279 -0.6857 -0.0000
vn 0.7139 0.6857 0.1420
vn 0.7139 -0.6857 0.1420
vn 0.6725 0.6857 0.2785
vn 0.6725 -0.6857 0.2786
vn 0.6052 0.6857 0.4044
vn 0.6052 -0.6857 0.4044
vn 0.5147 0.6857 0.5147
vn 0.5147 -0.6857 0.5147
vn 0.4044 0.6857 0.6052
vn 0.4044 -0.6857 0.6052
vn 0.2786 0.6857 0.6725
vn 0.2786 -0.6857 0.6725
vn 0.1420 0.6857 0.7139
vn 0.1420 -0.6857 0.7139
vn 0.0000 0.6857 0.7279
vn 0.0000 -0.6857 0.7279
vn -0.1420 0.6857 0.7139
vn -0.1420 -0.6857 0.7139
vn -0.2786 0.6857 0.6725
vn -0.2786 -0.6857 0.6725
vn -0.4044 0.6857 0.6052
vn -0.4044 -0.6857 0.6052
vn -0.5147 0.6857 0.5147
vn -0.5147 -0.6857 0.5147
vn -0.6052 0.6857 0.4044
vn -0.6052 -0.6857 0.4044
vn -0.6725 0.6857 0.2785
vn -0.6725 -0.6857 0.2786
vn -0.7139 0.6857 0.1420
vn -0.7139 -0.6857 0.1420
vn -0.7279 0.6857 -0.0000
vn -0.7279 -0.6857 -0.0000
vn -0.7139 0.6857 -0.1420
vn -0.7139 -0.6857 -0.1420
vn -0.6725 0.6857 -0.2786
vn -0.6725 -0.6857 -0.2786
vn -0.6052 0.6857 -0.4044
vn -0.6052 -0.6857 -0.4044
vn -0.5147 0.6857 -0.5147
vn -0.5147 -0.6857 -0.5147
vn -0.4044 0.6857 -0.6052
vn -0.4044 -0.6857 -0.6052
vn -0.2785 0.6857 -0.6725
vn -0.2785 -0.6857 -0.6725
vn -0.1420 0.6857 -0.7139
vn -0.1420 -0.6857 -0.7139
s 1
f 1/1/1 2/2/2 3/3/3 4/4/4
f 4/4/4 3/3/3 5/5/5 6/6/6
f 6/6/6 5/5/5 7/7/7 8/8/8
f 8/8/8 7/7/7 9/9/9 10/10/10
f 10/10/10 9/9/9 11/11/11 12/12/12
f 12/12/12 11/11/11 13/13/13 14/14/14
f 14/14/14 13/13/13 15/15/15 16/16/16
f 16/16/16 15/15/15 17/17/17 18/18/18
f 18/18/18 17/17/17 19/19/19 20/20/20
f 20/20/20 19/19/19 21/21/21 22/22/22
f 22/22/22 21/21/21 23/23/23 24/24/24
f 24/24/24 23/23/23 25/25/25 26/26/26
f 26/26/26 25/25/25 27/27/27 28/28/28
f 28/28/28 27/27/27 29/29/29 30/30/30
f 30/30/30 29/29/29 31/31/31 32/32/32
f 32/32/32 31/31/31 33/33/33 34/34/34
f 34/34/34 33/33/33 35/35/35 36/36/36
f 36/36/36 35/35/35 37/37/37 38/38/38
f 38/38/38 37/37/37 39/39/39 40/40/40
f 40/40/40 39/39/39 41/41/41 42/42/42
f 42/42/42 41/41/41 43/43/43 44/44/44
f 44/44/44 43/43/43 45/45/45 46/46/46
f 46/46/46 45/45/45 47/47/47 48/48/48
f 48/48/48 47/47/47 49/49/49 50/50/50
f 50/50/50 49/49/49 51/51/51 52/52/52
f 52/52/52 51/51/51 53/53/53 54/54/54
f 54/54/54 53/53/53 55/55/55 56/56/56
f 56/56/56 55/55/55 57/57/57 58/58/58
f 58/58/58 57/57/57 59/59/59 60/60/60
f 60/60/60 59/59/59 61/61/61 62/62/62
f 3/3/3 2/2/2 63/63/63 61/61/61 59/59/59 57/57/57 55/55/55 53/53/53 51/51/51 49/49/49 47/47/47 45/45/45 43/43/43 41/41/41 39/39/39 37/37/37 35/35/35 33/33/33 31/31/31 29/29/29 27/27/27 25/25/25 23/23/23 21/21/21 19/19/19 17/17/17 15/15/15 13/13/13 11/11/11 9/9/9 7/7/7 5/5/5
f 62/62/62 61/61/61 63/63/63 64/64/64
f 64/64/64 63/63/63 2/2/2 1/1/1
f 1/1/1 4/4/4 6/6/6 8/8/8 10/10/10 12/12/12 14/14/14 16/16/16 18/18/18 20/20/20 22/22/22 24/24/24 26/26/26 28/28/28 30/30/30 32/32/32 34/34/34 36/36/36 38/38/38 40/40/40 42/42/42 44/44/44 46/46/46 48/48/48 50/50/50 52/52/52 54/54/54 56/56/56 58/58/58 60/60/60 62/62/62 64/64/64
